<?xml version="1.0" ?><svg height="24px" version="1.1" viewBox="0 0 24 24" width="24px" xmlns="http://www.w3.org/2000/svg" xmlns:xlink="http://www.w3.org/1999/xlink"><title/><g fill="none" fill-rule="evenodd" id="calendar-check" stroke="none" stroke-width="1"><path d="M8,2 L8,5 L16,5 L16,2 L18,2 L18,5 L19.4361148,5 C20.3276335,5 20.6509198,5.09282561 20.9768457,5.2671327 C21.3027716,5.4414398 21.5585602,5.69722837 21.7328673,6.0231543 C21.9071744,6.34908022 22,6.67236646 22,7.5638852 L22,19.4361148 C22,20.3276335 21.9071744,20.6509198 21.7328673,20.9768457 C21.5585602,21.3027716 21.3027716,21.5585602 20.9768457,21.7328673 C20.6509198,21.9071744 20.3276335,22 19.4361148,22 L4.5638852,22 C3.67236646,22 3.34908022,21.9071744 3.0231543,21.7328673 C2.69722837,21.5585602 2.4414398,21.3027716 2.2671327,20.9768457 C2.10623385,20.675991 2.014763,20.3773855 2.00164263,19.6320228 L2,7.5638852 C2,6.67236646 2.09282561,6.34908022 2.2671327,6.0231543 C2.4414398,5.69722837 2.69722837,5.4414398 3.0231543,5.2671327 C3.324009,5.10623385 3.6226145,5.014763 4.36797723,5.00164263 L6,5 L6,2 L8,2 Z M15.5352814,12.46 L11.2920905,16.7017909 L8.46421356,13.8742136 L7.05,15.2884271 L11.2926407,19.5310678 L16.9494949,13.8742136 L15.5352814,12.46 Z M19,6.965 L5,6.965 C4.44771525,6.965 4,7.41271525 4,7.965 L4,7.965 L4,9.965 L20,9.965 L20,7.965 C20,7.41271525 19.5522847,6.965 19,6.965 L19,6.965 Z" fill="#000000" fill-rule="nonzero" id="Combined-Shape"/></g></svg>